<?xml version="1.0" encoding="UTF-8"?>
<svg width="18px" height="22px" viewBox="0 0 18 22" version="1.1" xmlns="http://www.w3.org/2000/svg" xmlns:xlink="http://www.w3.org/1999/xlink">
    <title>vuesax/bold/location</title>
    <defs>
        <linearGradient x1="-9.29811783e-14%" y1="50%" x2="100%" y2="50%" id="linearGradient-1">
            <stop stop-color="#F98A10" offset="0%"></stop>
            <stop stop-color="#FF2FE6" offset="100%"></stop>
        </linearGradient>
    </defs>
    <g id="Filter" stroke="none" stroke-width="1" fill="none" fill-rule="evenodd">
        <g id="Artboard-Copy-50" transform="translate(-196.000000, -432.000000)">
            <g id="Vector" transform="translate(193.000000, 431.000000)">
                <path d="M12.0010719,1.75 C12.0010718,1.75 11.9977384,1.75 11.9910717,1.75 C8.46107173,1.75 4.42107187,3.81999969 3.37107192,8.43999958 C2.20107196,13.5999994 5.3610723,17.9699993 8.2210722,20.7199993 C9.28107214,21.7399993 10.6410719,22.25 12.0010719,22.25 C13.3610719,22.25 14.7210724,21.7399993 15.7710724,20.7199993 C18.6310723,17.9699993 21.7910727,13.6099997 20.6210728,8.44999981 C19.5710728,3.82999992 15.5410719,1.75 12.0010719,1.75 Z M8.85107231,10.3100004 C8.85107231,8.57000041 10.2610719,7.15999985 12.0010719,7.15999985 C13.7410719,7.15999985 15.1510715,8.57000041 15.1510715,10.3100004 C15.1510715,12.0500004 13.7410719,13.46 12.0010719,13.46 C10.2610719,13.46 8.85107231,12.0500004 8.85107231,10.3100004 Z" fill="#F98A10"></path>
                <path d="M24,0 L24,24 L0,24 L0,0 L24,0 Z" opacity="0"></path>
                <path d="M24,0 L24,24 L0,24 L0,0 L24,0 Z" opacity="0" transform="translate(12.000000, 12.000000) rotate(-180.000000) translate(-12.000000, -12.000000) "></path>
            </g>
        </g>
    </g>
</svg>